# xmcd CD database file
#
# Track frame offsets:
#	150
#	16303
#	28285
#	42370
#	62350
#	80723
#	96620
#	119790
#	142825
#	156525
#	177840
#	192085
#	210165
#	224993
#	243908
#	260990
#	274153
#	292715
#	309938
#
# Disc length: 4307 seconds
#
# Revision: 0
# Processed by: cddbd v1.5.1PL0 Copyright (c) Steve Scherf et al.
# Submitted via: cdripper 1.0.7
#
DISCID=2110d113
DTITLE=Bluesman Willie and The South Street Runners - I Love My Big Fat Mama
DYEAR=1991
DGENRE=Blues
TTITLE0=I Love My Big Fat Mama
TTITLE1=Caldonia
TTITLE2=I'm A Jungle Lovin' Man
TTITLE3=Fix My Rooster
TTITLE4=I Got My Own Mojo
TTITLE5=Nothin' But The Blues
TTITLE6=We All Make Mistakes
TTITLE7=My Baby Left Me Way Over Yonder
TTITLE8=Sweet Little Thang
TTITLE9=I Got A No Good Man
TTITLE10=Home Sweet Chicago
TTITLE11=The Nose Wide Open Blues
TTITLE12=I'm So Jealous Baby
TTITLE13=Merry Christmas (Where Have You Been)
TTITLE14=The Blues Was Born In The USA
TTITLE15=Arms Open Like A 7-11
TTITLE16=I'm A Little Blackbird
TTITLE17=Pump That Sexy Butt
TTITLE18=We All Make Mistakes
EXTD=YEAR: 1991
EXTT0=
EXTT1=
EXTT2=
EXTT3=
EXTT4=
EXTT5=
EXTT6=
EXTT7=
EXTT8=
EXTT9=
EXTT10=
EXTT11=
EXTT12=
EXTT13=
EXTT14=
EXTT15=
EXTT16=
EXTT17=
EXTT18=
PLAYORDER=
